<?xml version="1.0" encoding="iso-8859-1"?>
<!-- Generator: Adobe Illustrator 16.0.0, SVG Export Plug-In . SVG Version: 6.00 Build 0)  -->
<!DOCTYPE svg PUBLIC "-//W3C//DTD SVG 1.1//EN" "http://www.w3.org/Graphics/SVG/1.1/DTD/svg11.dtd">
<svg version="1.1" id="Capa_1" xmlns="http://www.w3.org/2000/svg" xmlns:xlink="http://www.w3.org/1999/xlink" x="0px" y="0px"
	 width="769.199px" height="769.2px" viewBox="0 0 769.199 769.2" style="enable-background:new 0 0 769.199 769.2;"
	 xml:space="preserve">
<g>
	<g>
		<g>
			<path d="M717.1,754.4h-665c-28.7,0-52-23.301-52-52V417.5h304V463h159.4v-45.6h305.699v284.899
				C769.199,731.099,745.801,754.4,717.1,754.4z M19.8,437.299V702.4c0,17.8,14.5,32.199,32.2,32.199h665.1
				c17.801,0,32.201-14.5,32.201-32.199V437.299h-266V482.9h-199v-45.601H19.8z"/>
		</g>
		<g>
			<path d="M432.6,440.9h-96v-81.7h96V440.9z M356.4,421.099h56.401V378.9H356.4V421.099z"/>
		</g>
		<g>
			<path d="M769.199,385.599H464.301V337H304.9v48.6H0v-156.3c0-28.7,23.3-52,52-52h191.1v-93.4c0-38.1,31-69.1,69.1-69.1H451
				c38.1,0,69.1,31,69.1,69.1v93.4h197.1c28.701,0,52,23.3,52,52V385.599L769.199,385.599z M484.1,365.799H749.4v-136.5
				c0-17.8-14.5-32.3-32.201-32.3h-217v-113.1c0-27.2-22.1-49.3-49.299-49.3H312.2c-27.2,0-49.3,22.1-49.3,49.3v113.2H52.1
				c-17.8,0-32.2,14.5-32.2,32.3v136.5h265.3v-48.6h198.999v48.5H484.1z M465.1,197.1h-167v-86.9c0-13.4,10.5-24.4,23.4-24.4
				h120.199c12.9,0,23.4,10.9,23.4,24.4V197.1L465.1,197.1z M317.9,177.299h127.401v-67.1c0-2.5-1.602-4.6-3.602-4.6H321.5
				c-1.9,0-3.601,2.1-3.601,4.6V177.299L317.9,177.299z"/>
		</g>
	</g>
</g>
<g>
</g>
<g>
</g>
<g>
</g>
<g>
</g>
<g>
</g>
<g>
</g>
<g>
</g>
<g>
</g>
<g>
</g>
<g>
</g>
<g>
</g>
<g>
</g>
<g>
</g>
<g>
</g>
<g>
</g>
</svg>
